name Walk10.mot
datacolumns 19
datarows 22
range 1.54400000 1.56500000
endheader

                time	   L_ground_force_vx	   L_ground_force_vy	   L_ground_force_vz	   L_ground_force_px	   L_ground_force_py	   L_ground_force_pz	   R_ground_force_vx	   R_ground_force_vy	   R_ground_force_vz	   R_ground_force_px	   R_ground_force_py	   R_ground_force_pz	   L_ground_torque_x	   L_ground_torque_y	   L_ground_torque_z	   R_ground_torque_x	   R_ground_torque_y	   R_ground_torque_z	
          1.54400000	         33.85441122	        929.20911691	         86.06043299	         -0.20072419	          0.00000000	         -0.06974109	         -0.00823491	          0.21067776	          0.01556373	          0.00018194	          0.00000000	          0.00005892	          0.00000000	         -2.23770533	          0.00000000	          0.00000000	          0.00043202	          0.00000000	
          1.54500000	         34.41131134	        931.06860692	         86.19272501	         -0.20038789	          0.00000000	         -0.06981426	         -0.00964934	          0.23004501	          0.01682089	          0.00019478	          0.00000000	          0.00006304	          0.00000000	         -2.23705057	          0.00000000	          0.00000000	          0.00063237	          0.00000000	
          1.54600000	         34.97211981	        932.93710359	         86.32130440	         -0.20005334	          0.00000000	         -0.06988583	         -0.01115537	          0.25026189	          0.01812540	          0.00020800	          0.00000000	          0.00006728	          0.00000000	         -2.23685582	          0.00000000	          0.00000000	          0.00084872	          0.00000000	
          1.54700000	         35.53704939	        934.81436707	         86.44603263	         -0.19972062	          0.00000000	         -0.06995579	         -0.01275527	          0.27132387	          0.01947627	          0.00022160	          0.00000000	          0.00007164	          0.00000000	         -2.23713488	          0.00000000	          0.00000000	          0.00108168	          0.00000000	
          1.54800000	         36.10632641	        936.70013566	         86.56677463	         -0.19938979	          0.00000000	         -0.07002411	         -0.01445116	          0.29322249	          0.02087224	          0.00023554	          0.00000000	          0.00007611	          0.00000000	         -2.23789974	          0.00000000	          0.00000000	          0.00133181	          0.00000000	
          1.54900000	         36.68018900	        938.59412255	         86.68340072	         -0.19906093	          0.00000000	         -0.07009079	         -0.01624497	          0.31594506	          0.02231173	          0.00024981	          0.00000000	          0.00008069	          0.00000000	         -2.23916070	          0.00000000	          0.00000000	          0.00159969	          0.00000000	
          1.55000000	         37.25888592	        940.49601295	         86.79578851	         -0.19873408	          0.00000000	         -0.07015582	         -0.01813837	          0.33947430	          0.02379284	          0.00026437	          0.00000000	          0.00008535	          0.00000000	         -2.24092663	          0.00000000	          0.00000000	          0.00188585	          0.00000000	
          1.55100000	         37.84267595	        942.40546241	         86.90382414	         -0.19840932	          0.00000000	         -0.07021918	         -0.02013281	          0.36378800	          0.02531331	          0.00027920	          0.00000000	          0.00009009	          0.00000000	         -2.24320522	          0.00000000	          0.00000000	          0.00219081	          0.00000000	
          1.55200000	         38.43182748	        944.32209683	         87.00740293	         -0.19808670	          0.00000000	         -0.07028085	         -0.02222943	          0.38885863	          0.02687054	          0.00029424	          0.00000000	          0.00009491	          0.00000000	         -2.24600305	          0.00000000	          0.00000000	          0.00251507	          0.00000000	
          1.55300000	         39.02661750	        946.24551378	         87.10642943	         -0.19776629	          0.00000000	         -0.07034085	         -0.02442908	          0.41465301	          0.02846150	          0.00030948	          0.00000000	          0.00009977	          0.00000000	         -2.24932543	          0.00000000	          0.00000000	          0.00285907	          0.00000000	
          1.55400000	         39.62733016	        948.17528457	         87.20081731	         -0.19744813	          0.00000000	         -0.07039916	         -0.02673224	          0.44113185	          0.03008275	          0.00032484	          0.00000000	          0.00010468	          0.00000000	         -2.25317634	          0.00000000	          0.00000000	          0.00322323	          0.00000000	
          1.55500000	         40.23425463	        950.11095622	         87.29048935	         -0.19713228	          0.00000000	         -0.07045580	         -0.02913902	          0.46824940	          0.03173042	          0.00034030	          0.00000000	          0.00010962	          0.00000000	         -2.25755829	          0.00000000	          0.00000000	          0.00360791	          0.00000000	
          1.55600000	         40.84768287	        952.05205287	         87.37537766	         -0.19681878	          0.00000000	         -0.07051075	         -0.03164910	          0.49595303	          0.03340016	          0.00035578	          0.00000000	          0.00011455	          0.00000000	         -2.26247236	          0.00000000	          0.00000000	          0.00401345	          0.00000000	
          1.55700000	         41.46790710	        953.99807653	         87.45542435	         -0.19650769	          0.00000000	         -0.07056404	         -0.03426173	          0.52418277	          0.03508712	          0.00037124	          0.00000000	          0.00011948	          0.00000000	         -2.26791821	          0.00000000	          0.00000000	          0.00444009	          0.00000000	
          1.55800000	         42.09521729	        955.94850673	         87.53058255	         -0.19619905	          0.00000000	         -0.07061568	         -0.03697564	          0.55287094	          0.03678593	          0.00038660	          0.00000000	          0.00012436	          0.00000000	         -2.27389406	          0.00000000	          0.00000000	          0.00488804	          0.00000000	
          1.55900000	         42.72989866	        957.90279970	         87.60081787	         -0.19589289	          0.00000000	         -0.07066568	         -0.03978903	          0.58194165	          0.03849068	          0.00040179	          0.00000000	          0.00012919	          0.00000000	         -2.28039663	          0.00000000	          0.00000000	          0.00535743	          0.00000000	
          1.56000000	         43.37222955	        959.86038741	         87.66610997	         -0.19558928	          0.00000000	         -0.07071405	         -0.04269954	          0.61131039	          0.04019489	          0.00041673	          0.00000000	          0.00013394	          0.00000000	         -2.28742113	          0.00000000	          0.00000000	          0.00584831	          0.00000000	
          1.56100000	         44.02247958	        961.82067750	         87.72645390	         -0.19528823	          0.00000000	         -0.07076082	         -0.04570416	          0.64088357	          0.04189145	          0.00043133	          0.00000000	          0.00013857	          0.00000000	         -2.29496128	          0.00000000	          0.00000000	          0.00636066	          0.00000000	
          1.56200000	         44.68090813	        963.78305401	         87.78186100	         -0.19498980	          0.00000000	         -0.07080600	         -0.04879922	          0.67055804	          0.04357266	          0.00044552	          0.00000000	          0.00014306	          0.00000000	         -2.30300930	          0.00000000	          0.00000000	          0.00689434	          0.00000000	
          1.56300000	         45.34776294	        965.74687917	         87.83235911	         -0.19469401	          0.00000000	         -0.07084961	         -0.05198036	          0.70022067	          0.04523015	          0.00045918	          0.00000000	          0.00014737	          0.00000000	         -2.31155585	          0.00000000	          0.00000000	          0.00744915	          0.00000000	
          1.56400000	         46.02327874	        967.71149539	         87.87799252	         -0.19440089	          0.00000000	         -0.07089166	         -0.05524244	          0.72974785	          0.04685486	          0.00047221	          0.00000000	          0.00015148	          0.00000000	         -2.32058990	          0.00000000	          0.00000000	          0.00802474	          0.00000000	
          1.56500000	         46.70767611	        969.67622746	         87.91882163	         -0.19411047	          0.00000000	         -0.07093218	         -0.05857949	          0.75900505	          0.04843704	          0.00048451	          0.00000000	          0.00015535	          0.00000000	         -2.33009849	          0.00000000	          0.00000000	          0.00862068	          0.00000000	
